<?xml version="1.0" encoding="utf-8"?>
<!-- Generator: Adobe Illustrator 22.0.0, SVG Export Plug-In . SVG Version: 6.00 Build 0)  -->
<svg version="1.0" xmlns="http://www.w3.org/2000/svg" xmlns:xlink="http://www.w3.org/1999/xlink" x="0px" y="0px"
	 viewBox="0 0 230.7 235.7" enable-background="new 0 0 230.7 235.7" xml:space="preserve">
<g id="Layer_1" display="none">
	
		<linearGradient id="SVGID_1_" gradientUnits="userSpaceOnUse" x1="44.65" y1="77.3513" x2="44.65" y2="39.8893" gradientTransform="matrix(1 0 0 -1 0 232)">
		<stop  offset="0" style="stop-color:#E5FFF0"/>
		<stop  offset="1" style="stop-color:#A2FFE9"/>
	</linearGradient>
	<path display="inline" fill="url(#SVGID_1_)" d="M40.9,144L9.2,224.7h31.4c3.4,0,6.3-0.9,8.6-2.9c2.3-1.9,3.9-4,4.7-6.3l16.2-44.2
		h0.3l9.7-27.3H40.9z"/>
	
		<linearGradient id="SVGID_2_" gradientUnits="userSpaceOnUse" x1="29.9" y1="74" x2="199.8" y2="74" gradientTransform="matrix(1 0 0 -1 0 232)">
		<stop  offset="0.3126" style="stop-color:#A2FFE9"/>
		<stop  offset="1" style="stop-color:#64FFDA"/>
	</linearGradient>
	<polygon display="inline" fill="url(#SVGID_2_)" points="199.8,172 188.8,144 40.9,144 29.9,172 	"/>
	<path display="inline" fill="#DBDBDB" d="M80.1,144l0.4-1.2h-0.1l2.1-5.8l31.7-89.5c0.2-0.8,0.4-1.5,0.6-2.3c0,0.1,0.1,0.2,0.1,0.3
		l13.3-37.6h-34L40.9,144H80.1z"/>
	<g display="inline">
		<polygon fill="#DBDBDB" points="94,104.8 56.3,104.8 40.9,144 80.1,144 80.6,142.8 80.5,142.8 82.6,137 		"/>
	</g>
	
		<linearGradient id="SVGID_3_" gradientUnits="userSpaceOnUse" x1="190.6" y1="50.2961" x2="190.6" y2="60.5532" gradientTransform="matrix(1 0 0 -1 0 232)">
		<stop  offset="0" style="stop-color:#EDEDED"/>
		<stop  offset="1" style="stop-color:#DBDBDB"/>
	</linearGradient>
	<path display="inline" fill="url(#SVGID_3_)" d="M160.3,172l15.9,43.5c1,2.6,2.6,4.8,4.9,6.5c2.2,1.8,5.1,2.6,8.6,2.6h31.2
		L200.2,172H160.3z"/>
	<g display="inline">
		
			<linearGradient id="SVGID_4_" gradientUnits="userSpaceOnUse" x1="105.7434" y1="202.1478" x2="113.4961" y2="205.2801" gradientTransform="matrix(1 0 0 -1 0 232)">
			<stop  offset="0" style="stop-color:#DBDBDB"/>
			<stop  offset="1" style="stop-color:#BCBCBC"/>
		</linearGradient>
		<path fill="url(#SVGID_4_)" d="M112,54l2.3-6.6c0.2-0.8,0.4-1.5,0.6-2.3c0,0.1,0.1,0.2,0.1,0.3l13.3-37.6h-34L76.3,54H112z"/>
	</g>
	
		<linearGradient id="SVGID_5_" gradientUnits="userSpaceOnUse" x1="119.9151" y1="225.5207" x2="166.5818" y2="97.1874" gradientTransform="matrix(1 0 0 -1 0 232)">
		<stop  offset="0" style="stop-color:#E5FFF0"/>
		<stop  offset="1" style="stop-color:#A2FFE9"/>
	</linearGradient>
	<path display="inline" fill="url(#SVGID_5_)" d="M115,45.2c0.1,0.5,0.3,1,0.4,1.6l30.2,85.2l4,10.9l10.6,29.2h39.9L135.7,7.8h-34.1
		L115,45.2L115,45.2z"/>
</g>
<g id="Layer_2">
	<g>
		<circle fill="#78BAF8" cx="177.5" cy="182.8" r="28.1"/>
		<circle fill="#79BAF8" cx="177.4" cy="182.9" r="28.1"/>
		<circle fill="#79BBF8" cx="177.1" cy="183.1" r="28.1"/>
		<circle fill="#7ABBF8" cx="176.7" cy="183.6" r="28.1"/>
		<circle fill="#7BBBF8" cx="176.1" cy="184.2" r="28.1"/>
		<circle fill="#7BBCF8" cx="175.3" cy="184.9" r="28.1"/>
		<circle fill="#7CBCF8" cx="174.3" cy="185.7" r="28.1"/>
		<circle fill="#7DBCF8" cx="173.1" cy="186.7" r="28.1"/>
		<circle fill="#7DBDF8" cx="171.8" cy="187.7" r="28.1"/>
		<circle fill="#7EBDF8" cx="170.2" cy="188.8" r="28.1"/>
		<circle fill="#7FBDF8" cx="168.5" cy="189.9" r="28.1"/>
		<circle fill="#80BEF8" cx="166.6" cy="191.1" r="28.1"/>
		<circle fill="#80BEF8" cx="164.5" cy="192.3" r="28.1"/>
		<circle fill="#81BEF8" cx="162.3" cy="193.6" r="28.1"/>
		<circle fill="#82BFF8" cx="159.8" cy="194.8" r="28.1"/>
		<circle fill="#82BFF8" cx="157.2" cy="196" r="28.1"/>
		<circle fill="#83BFF8" cx="154.3" cy="197.1" r="28.1"/>
		<circle fill="#84C0F8" cx="151.3" cy="198.2" r="28.1"/>
		<circle fill="#84C0F8" cx="148.1" cy="199.3" r="28.1"/>
		<circle fill="#85C0F8" cx="144.7" cy="200.2" r="28.1"/>
		<circle fill="#86C1F8" cx="141.1" cy="201.1" r="28.1"/>
		<circle fill="#86C1F8" cx="137.4" cy="201.8" r="28.1"/>
		<circle fill="#87C1F8" cx="133.4" cy="202.5" r="28.1"/>
		<circle fill="#88C2F8" cx="129.2" cy="202.9" r="28.1"/>
		<circle fill="#88C2F8" cx="124.9" cy="203.2" r="28.1"/>
		<circle fill="#89C2F8" cx="120.3" cy="203.4" r="28.1"/>
		<circle fill="#8AC3F8" cx="117.6" cy="203.3" r="28.1"/>
		<circle fill="#8AC3F8" cx="115.2" cy="203.2" r="28.1"/>
		<circle fill="#8BC3F8" cx="112.9" cy="203" r="28.1"/>
		<circle fill="#8CC4F8" cx="110.6" cy="202.7" r="28.1"/>
		<circle fill="#8CC4F8" cx="108.3" cy="202.4" r="28.1"/>
		<circle fill="#8DC4F8" cx="106.1" cy="201.9" r="28.1"/>
		<circle fill="#8EC5F8" cx="103.8" cy="201.4" r="28.1"/>
		<circle fill="#8FC5F8" cx="101.6" cy="200.8" r="28.1"/>
		<circle fill="#8FC5F8" cx="99.3" cy="200.1" r="28.1"/>
		<circle fill="#90C6F8" cx="97.1" cy="199.3" r="28.1"/>
		<circle fill="#91C6F8" cx="95" cy="198.5" r="28.1"/>
		<circle fill="#91C6F8" cx="92.8" cy="197.6" r="28.1"/>
		<circle fill="#92C7F8" cx="90.7" cy="196.6" r="28.1"/>
		<circle fill="#93C7F8" cx="88.6" cy="195.6" r="28.1"/>
		<circle fill="#93C7F8" cx="86.5" cy="194.4" r="28.1"/>
		<circle fill="#94C8F8" cx="84.5" cy="193.2" r="28.1"/>
		<circle fill="#95C8F8" cx="82.5" cy="192" r="28.1"/>
		<circle fill="#95C8F8" cx="80.5" cy="190.6" r="28.1"/>
		<circle fill="#96C9F8" cx="78.6" cy="189.2" r="28.1"/>
		<circle fill="#97C9F8" cx="76.6" cy="187.8" r="28.1"/>
		<circle fill="#97C9F8" cx="74.8" cy="186.2" r="28.1"/>
		<circle fill="#98CAF8" cx="73" cy="184.7" r="28.1"/>
		<circle fill="#99CAF8" cx="71.2" cy="183" r="28.1"/>
		<circle fill="#99CAF8" cx="69.4" cy="181.3" r="28.1"/>
		<circle fill="#9ACBF8" cx="67.7" cy="179.5" r="28.1"/>
		<circle fill="#9BCBF8" cx="66.1" cy="177.7" r="28.1"/>
		<circle fill="#9BCBF8" cx="64.5" cy="175.8" r="28.1"/>
		<circle fill="#9CCCF8" cx="62.9" cy="173.9" r="28.1"/>
		<circle fill="#9DCCF8" cx="61.4" cy="171.9" r="28.1"/>
		<circle fill="#9ECCF8" cx="59.9" cy="169.8" r="28.1"/>
		<circle fill="#9ECDF8" cx="58.5" cy="167.7" r="28.1"/>
		<circle fill="#9FCDF8" cx="57.2" cy="165.6" r="28.1"/>
		<circle fill="#A0CDF8" cx="55.9" cy="163.4" r="28.1"/>
		<circle fill="#A0CEF8" cx="54.6" cy="161.1" r="28.1"/>
		<circle fill="#A1CEF8" cx="53.5" cy="158.8" r="28.1"/>
		<circle fill="#A2CEF8" cx="52.3" cy="156.5" r="28.1"/>
		<circle fill="#A2CFF8" cx="51.3" cy="154.1" r="28.1"/>
		<circle fill="#A3CFF8" cx="50.3" cy="151.7" r="28.1"/>
		<circle fill="#A4CFF8" cx="49.4" cy="149.2" r="28.1"/>
		<circle fill="#A4D0F8" cx="48.5" cy="146.7" r="28.1"/>
		<circle fill="#A5D0F8" cx="47.7" cy="144.2" r="28.1"/>
		<circle fill="#A6D0F8" cx="47" cy="141.6" r="28.1"/>
		<circle fill="#A6D1F8" cx="46.3" cy="139" r="28.1"/>
		<circle fill="#A7D1F8" cx="45.8" cy="136.3" r="28.1"/>
		<circle fill="#A8D1F8" cx="45.3" cy="133.6" r="28.1"/>
		<circle fill="#A8D2F8" cx="44.8" cy="130.9" r="28.1"/>
		<circle fill="#A9D2F8" cx="44.5" cy="128.1" r="28.1"/>
		<circle fill="#AAD2F8" cx="44.2" cy="125.3" r="28.1"/>
		<circle fill="#AAD3F8" cx="44" cy="122.5" r="28.1"/>
		<circle fill="#ABD3F8" cx="43.9" cy="119.6" r="28.1"/>
		<circle fill="#ACD3F7" cx="43.9" cy="116.8" r="28.1"/>
		<circle fill="#ADD3F7" cx="44" cy="113.9" r="28.1"/>
		<circle fill="#ADD4F7" cx="44.1" cy="111.1" r="28.1"/>
		<circle fill="#AED4F7" cx="44.3" cy="108.3" r="28.1"/>
		<circle fill="#AFD4F7" cx="44.6" cy="105.5" r="28.1"/>
		<circle fill="#AFD5F7" cx="45" cy="102.8" r="28.1"/>
		<circle fill="#B0D5F7" cx="45.4" cy="100.1" r="28.1"/>
		<circle fill="#B1D5F7" cx="45.9" cy="97.4" r="28.1"/>
		<circle fill="#B1D6F7" cx="46.5" cy="94.8" r="28.1"/>
		<circle fill="#B2D6F7" cx="47.2" cy="92.2" r="28.1"/>
		<circle fill="#B3D6F7" cx="47.9" cy="89.7" r="28.1"/>
		<circle fill="#B3D7F7" cx="48.7" cy="87.1" r="28.1"/>
		<circle fill="#B4D7F7" cx="49.5" cy="84.7" r="28.1"/>
		<circle fill="#B5D7F7" cx="50.4" cy="82.3" r="28.1"/>
		<circle fill="#B5D8F7" cx="51.4" cy="79.9" r="28.1"/>
		<circle fill="#B6D8F7" cx="52.5" cy="77.5" r="28.1"/>
		<circle fill="#B7D8F7" cx="53.6" cy="75.3" r="28.1"/>
		<circle fill="#B7D9F7" cx="54.8" cy="73" r="28.1"/>
		<circle fill="#B8D9F7" cx="56" cy="70.8" r="28.1"/>
		<circle fill="#B9D9F7" cx="57.3" cy="68.7" r="28.1"/>
		<circle fill="#B9DAF7" cx="58.6" cy="66.6" r="28.1"/>
		<circle fill="#BADAF7" cx="60" cy="64.5" r="28.1"/>
		<circle fill="#BBDAF7" cx="61.4" cy="62.5" r="28.1"/>
		<circle fill="#BCDBF7" cx="62.9" cy="60.6" r="28.1"/>
		<circle fill="#BCDBF7" cx="64.5" cy="58.7" r="28.1"/>
		<circle fill="#BDDBF7" cx="66.1" cy="56.8" r="28.1"/>
		<circle fill="#BEDCF7" cx="67.7" cy="55" r="28.1"/>
		<circle fill="#BEDCF7" cx="69.4" cy="53.3" r="28.1"/>
		<circle fill="#BFDCF7" cx="71.2" cy="51.6" r="28.1"/>
		<circle fill="#C0DDF7" cx="73" cy="50" r="28.1"/>
		<circle fill="#C0DDF7" cx="74.8" cy="48.5" r="28.1"/>
		<circle fill="#C1DDF7" cx="76.7" cy="47" r="28.1"/>
		<circle fill="#C2DEF7" cx="78.6" cy="45.5" r="28.1"/>
		<circle fill="#C2DEF7" cx="80.5" cy="44.1" r="28.1"/>
		<circle fill="#C3DEF7" cx="82.5" cy="42.8" r="28.1"/>
		<circle fill="#C4DFF7" cx="84.5" cy="41.6" r="28.1"/>
		<circle fill="#C4DFF7" cx="86.6" cy="40.4" r="28.1"/>
		<circle fill="#C5DFF7" cx="88.7" cy="39.3" r="28.1"/>
		<circle fill="#C6E0F7" cx="90.8" cy="38.2" r="28.1"/>
		<circle fill="#C6E0F7" cx="93" cy="37.2" r="28.1"/>
		<circle fill="#C7E0F7" cx="95.2" cy="36.3" r="28.1"/>
		<circle fill="#C8E1F7" cx="97.4" cy="35.5" r="28.1"/>
		<circle fill="#C8E1F7" cx="99.6" cy="34.7" r="28.1"/>
		<circle fill="#C9E1F7" cx="101.9" cy="34" r="28.1"/>
		<circle fill="#CAE2F7" cx="104.2" cy="33.4" r="28.1"/>
		<circle fill="#CBE2F7" cx="106.5" cy="32.8" r="28.1"/>
		<circle fill="#CBE2F7" cx="108.9" cy="32.3" r="28.1"/>
		<circle fill="#CCE3F7" cx="111.2" cy="31.9" r="28.1"/>
		<circle fill="#CDE3F7" cx="113.6" cy="31.6" r="28.1"/>
		<circle fill="#CDE3F7" cx="116" cy="31.3" r="28.1"/>
		<circle fill="#CEE4F7" cx="118.4" cy="31.1" r="28.1"/>
		<circle fill="#CFE4F7" cx="122" cy="31" r="28.1"/>
		<circle fill="#CFE4F7" cx="126.2" cy="31" r="28.1"/>
		<circle fill="#D0E5F7" cx="130.2" cy="31.2" r="28.1"/>
		<circle fill="#D1E5F7" cx="134.2" cy="31.6" r="28.1"/>
		<circle fill="#D1E5F7" cx="137.9" cy="32" r="28.1"/>
		<circle fill="#D2E6F7" cx="141.6" cy="32.7" r="28.1"/>
		<circle fill="#D3E6F7" cx="145" cy="33.4" r="28.1"/>
		<circle fill="#D3E6F7" cx="148.4" cy="34.2" r="28.1"/>
		<circle fill="#D4E7F7" cx="151.5" cy="35.1" r="28.1"/>
		<circle fill="#D5E7F7" cx="154.5" cy="36.1" r="28.1"/>
		<circle fill="#D5E7F7" cx="157.4" cy="37.1" r="28.1"/>
		<circle fill="#D6E8F7" cx="160" cy="38.2" r="28.1"/>
		<circle fill="#D7E8F7" cx="162.5" cy="39.2" r="28.1"/>
		<circle fill="#D7E8F7" cx="164.8" cy="40.3" r="28.1"/>
		<circle fill="#D8E9F7" cx="167" cy="41.4" r="28.1"/>
		<circle fill="#D9E9F7" cx="168.9" cy="42.4" r="28.1"/>
		<circle fill="#DAE9F7" cx="170.7" cy="43.4" r="28.1"/>
		<circle fill="#DAEAF7" cx="172.2" cy="44.3" r="28.1"/>
		<circle fill="#DBEAF7" cx="173.6" cy="45.2" r="28.1"/>
		<circle fill="#DCEAF7" cx="174.8" cy="46" r="28.1"/>
		<circle fill="#DCEBF7" cx="175.7" cy="46.6" r="28.1"/>
		<circle fill="#DDEBF7" cx="176.5" cy="47.2" r="28.1"/>
		<circle fill="#DEEBF7" cx="177" cy="47.6" r="28.1"/>
		<circle fill="#DEECF7" cx="177.4" cy="47.8" r="28.1"/>
		<circle fill="#DFECF7" cx="177.5" cy="47.9" r="28.1"/>
	</g>
</g>
</svg>
