<?xml version="1.0" encoding="utf-8"?>
<!-- Generator: Adobe Illustrator 21.1.0, SVG Export Plug-In . SVG Version: 6.00 Build 0)  -->
<svg version="1.0" id="Layer_1" xmlns="http://www.w3.org/2000/svg" xmlns:xlink="http://www.w3.org/1999/xlink" x="0px" y="0px"
	 viewBox="0 0 230.7 230.7" enable-background="new 0 0 230.7 230.7" xml:space="preserve">
<linearGradient id="SVGID_1_" gradientUnits="userSpaceOnUse" x1="44.6736" y1="154.6487" x2="44.6736" y2="192.1107">
	<stop  offset="0" style="stop-color:#E5FFF0"/>
	<stop  offset="1" style="stop-color:#A2FFE9"/>
</linearGradient>
<path fill="url(#SVGID_1_)" d="M40.9,144L9.2,224.7h31.4c3.4,0,6.3-0.9,8.6-2.9c2.3-1.9,3.9-4,4.7-6.3l16.2-44.2h0.3l9.7-27.3H40.9z
	"/>
<linearGradient id="SVGID_2_" gradientUnits="userSpaceOnUse" x1="29.9168" y1="158.0374" x2="199.7979" y2="158.0374">
	<stop  offset="0.3126" style="stop-color:#A2FFE9"/>
	<stop  offset="1" style="stop-color:#64FFDA"/>
</linearGradient>
<polygon fill="url(#SVGID_2_)" points="199.8,172 188.8,144 40.9,144 29.9,172 "/>
<path fill="#DBDBDB" d="M80.1,144l0.4-1.2h-0.1l2.1-5.8l31.7-89.5c0.2-0.8,0.4-1.5,0.6-2.3c0,0.1,0.1,0.2,0.1,0.3l13.3-37.6h-34
	L40.9,144H80.1z"/>
<g>
	<polygon fill="#DBDBDB" points="94,104.8 56.3,104.8 40.9,144 80.1,144 80.6,142.8 80.5,142.8 82.6,137 	"/>
</g>
<linearGradient id="SVGID_3_" gradientUnits="userSpaceOnUse" x1="190.5853" y1="181.7039" x2="190.5853" y2="171.4468">
	<stop  offset="0" style="stop-color:#EDEDED"/>
	<stop  offset="1" style="stop-color:#DBDBDB"/>
</linearGradient>
<path fill="url(#SVGID_3_)" d="M160.3,172l15.9,43.5c1,2.6,2.6,4.8,4.9,6.5c2.2,1.8,5.1,2.6,8.6,2.6h31.2L200.2,172H160.3z"/>
<g>
	<linearGradient id="SVGID_4_" gradientUnits="userSpaceOnUse" x1="105.7601" y1="29.8936" x2="113.5128" y2="26.7613">
		<stop  offset="0" style="stop-color:#DBDBDB"/>
		<stop  offset="1" style="stop-color:#BCBCBC"/>
	</linearGradient>
	<path fill="url(#SVGID_4_)" d="M112,54l2.3-6.6c0.2-0.8,0.4-1.5,0.6-2.3c0,0.1,0.1,0.2,0.1,0.3l13.3-37.6h-34L76.3,54H112z"/>
</g>
<linearGradient id="SVGID_5_" gradientUnits="userSpaceOnUse" x1="119.9985" y1="6.449" x2="166.6652" y2="134.7823">
	<stop  offset="0" style="stop-color:#E5FFF0"/>
	<stop  offset="1" style="stop-color:#A2FFE9"/>
</linearGradient>
<path fill="url(#SVGID_5_)" d="M115,45.2c0.1,0.5,0.3,1,0.4,1.6l30.2,85.2l4,10.9l10.6,29.2h39.9L135.7,7.8h-34.1l13.3,37.5
	C114.9,45.3,115,45.2,115,45.2z"/>
</svg>
