<?xml version="1.0" encoding="utf-8"?>
<!-- Generator: Adobe Illustrator 21.1.0, SVG Export Plug-In . SVG Version: 6.00 Build 0)  -->
<svg version="1.0" id="Capa_1" xmlns="http://www.w3.org/2000/svg" xmlns:xlink="http://www.w3.org/1999/xlink" x="0px" y="0px"
	 viewBox="0 0 898.5 417" enable-background="new 0 0 898.5 417" xml:space="preserve">
<g>
	<path fill="#2979FF" d="M98.1,259.6c0-16.5-13.4-29.9-29.9-29.9s-29.9,13.4-29.9,29.9c0,16.5,13.4,29.9,29.9,29.9
		S98.1,276.1,98.1,259.6z M55.5,259.6c0-7.1,5.7-12.8,12.8-12.8s12.8,5.7,12.8,12.8c0,7.1-5.7,12.8-12.8,12.8S55.5,266.7,55.5,259.6
		z"/>
	<path fill="#2979FF" d="M209.1,298c0,18.8,15.3,34.1,34.1,34.1s34.1-15.3,34.1-34.1s-15.3-34.1-34.1-34.1S209.1,279.2,209.1,298z
		 M260.3,298c0,9.4-7.7,17.1-17.1,17.1s-17.1-7.7-17.1-17.1c0-9.4,7.7-17.1,17.1-17.1S260.3,288.6,260.3,298z"/>
	<path fill="#2979FF" d="M422.4,93.2c0,2.2,0.8,4.4,2.5,6l17.1,17.1c3.3,3.3,8.7,3.3,12.1,0c3.3-3.3,3.3-8.7,0-12.1L437,87.2
		c-3.3-3.3-8.7-3.3-12.1,0C423.2,88.8,422.4,91,422.4,93.2z"/>
	<path fill="#2979FF" d="M270.9,400.4c7.5,0,14.6-2.9,19.9-8.2l4.8-4.8c7.2,8.1,17.5,13,28.7,13c21.2,0,38.4-17.2,38.4-38.4
		c0-1.6-0.2-3.1-0.3-4.6c1.5,0.2,3,0.3,4.6,0.3c21.2,0,38.4-17.2,38.4-38.4c0-1.6-0.2-3.1-0.3-4.6c1.5,0.2,3,0.3,4.6,0.3
		c21.2,0,38.4-17.2,38.4-38.4c0-1.6-0.2-3.1-0.3-4.6c1.5,0.2,3,0.3,4.6,0.3c21.2,0,38.4-17.2,38.4-38.4c0-11.2-4.9-21.5-13-28.7
		l6.8-6.8l32.1-32.1c11-11,11-28.8,0-39.7L411.5,21.6c-11-10.9-28.8-10.9-39.8,0l-32.1,32.1l-41.9,41.9c-6.6-11.6-19-19.5-33.2-19.5
		c-13.3,0-25.1,6.9-32,17.2c-0.7,0.5-1.4,1.1-2.1,1.9L139,187.1h-15.3V170H12.8v153.6v68.3h110.9v-17.1h25.9
		c13.8,16.3,33.7,25.6,55.2,25.6c14.8,0,29.3-4.6,41.4-13.1l4.9,4.9C256.4,397.5,263.4,400.4,270.9,400.4z M324.3,383.3
		c-6.6,0-12.6-3-16.6-8l30-30c5,4,8,10.1,8,16.6C345.6,373.8,336,383.3,324.3,383.3z M366.9,340.7c-6.6,0-12.6-3-16.6-8l30-30
		c5,4,8,10.1,8,16.6C388.3,331.1,378.7,340.7,366.9,340.7z M409.6,298c-6.6,0-12.6-3-16.6-8l30-30c5,4,8,10.1,8,16.6
		C430.9,288.4,421.4,298,409.6,298z M473.6,234c0,11.8-9.6,21.3-21.3,21.3c-6.6,0-12.6-3-16.6-8l30-30
		C470.6,221.4,473.6,227.4,473.6,234z M383.8,33.7c4.3-4.3,11.3-4.3,15.6,0l105.1,105.1c1.1,1.1,1.9,2.3,2.4,3.6
		c0.2,0.6,0.2,1.3,0.4,1.9c0.3,1.5,0.3,3,0,4.5c-0.1,0.6-0.1,1.3-0.4,1.9c-0.5,1.3-1.3,2.6-2.4,3.6l-20,20L363.8,53.7L383.8,33.7z
		 M472.4,186.5l-10.1,10.1l-42.7,42.7l-4.9,4.9L377,281.9l-4.9,4.9l-37.8,37.8l-4.9,4.9l-42.7,42.7l-8,8c-4.3,4.3-11.3,4.3-15.6,0
		l-3.7-3.7l0,0L158.1,275c-4.3-4.3-4.3-11.3,0-15.6l68.1-68.1v8.5c0,21.2,17.2,38.4,38.4,38.4s38.4-17.2,38.4-38.4v-85.3l48.8-48.8
		L472.4,186.5z M285.3,109.9l0.4,3.5c0.1,0.3,0.1,0.7,0.1,1.1v85.3c0,11.8-9.6,21.3-21.3,21.3c-11.8,0-21.3-9.6-21.3-21.3v-25.6
		v-24.1v-35.6c0-11.8,9.6-21.3,21.3-21.3C274.7,93.2,283.2,100.4,285.3,109.9z M29.9,187.1h76.8V259c0,26.2-21.3,47.6-47.6,47.6
		H29.9V187.1z M29.9,374.8v-51.2h29.2c18.8,0,35.7-8.1,47.6-21v72.2H29.9z M233.9,375c-8.7,5.4-18.8,8.3-29.1,8.3
		c-17.5,0-33.7-8.1-44.3-22.2l-2.6-3.4h-34.2V259v-54.8h23.2l2.6-3c0.3-0.4,0.6-0.8,1.2-1.5l75.5-75.8v43.4L146,247.3
		c-5.5,5.5-8.2,12.7-8.2,19.9c0,7.2,2.7,14.4,8.2,19.9L233.9,375z"/>
</g>
<rect x="704" y="166.2" fill="none" stroke="#2979FF" stroke-width="18" stroke-linecap="round" stroke-linejoin="round" stroke-miterlimit="10" width="172.2" height="172.2"/>
<g>
	<circle fill="#2979FF" cx="735.1" cy="199.3" r="9"/>
	<circle fill="#2979FF" cx="762.6" cy="199.3" r="9"/>
	<circle fill="#2979FF" cx="790.1" cy="199.3" r="9"/>
	<circle fill="#2979FF" cx="817.6" cy="199.3" r="9"/>
	<circle fill="#2979FF" cx="845.1" cy="199.3" r="9"/>
	<circle fill="#2979FF" cx="735.1" cy="225.8" r="9"/>
	<circle fill="#2979FF" cx="762.6" cy="225.8" r="9"/>
	<circle fill="#2979FF" cx="790.1" cy="225.8" r="9"/>
	<circle fill="#2979FF" cx="817.6" cy="225.8" r="9"/>
	<circle fill="#2979FF" cx="845.1" cy="225.8" r="9"/>
	<circle fill="#2979FF" cx="735.1" cy="252.3" r="9"/>
	<circle fill="#2979FF" cx="762.6" cy="252.3" r="9"/>
	<circle fill="#2979FF" cx="790.1" cy="252.3" r="9"/>
	<circle fill="#2979FF" cx="817.6" cy="252.3" r="9"/>
	<circle fill="#2979FF" cx="845.1" cy="252.3" r="9"/>
	<circle fill="#2979FF" cx="735.1" cy="278.8" r="9"/>
	<circle fill="#2979FF" cx="762.6" cy="278.8" r="9"/>
	<circle fill="#2979FF" cx="790.1" cy="278.8" r="9"/>
	<circle fill="#2979FF" cx="817.6" cy="278.8" r="9"/>
	<circle fill="#2979FF" cx="845.1" cy="278.8" r="9"/>
	<circle fill="#2979FF" cx="735.1" cy="305.3" r="9"/>
	<circle fill="#2979FF" cx="762.6" cy="305.3" r="9"/>
	<circle fill="#2979FF" cx="790.1" cy="305.3" r="9"/>
	<circle fill="#2979FF" cx="817.6" cy="305.3" r="9"/>
	<circle fill="#2979FF" cx="845.1" cy="305.3" r="9"/>
</g>
<g>
	<g>
		<path fill="#2979FF" d="M574.5,75.9c-4.4-4.4-11.5-4.4-16,0c-4.4,4.4-4.4,11.5,0,16c30.4,30.4,30.4,79.8,0,110.2
			c-2.2,2.2-3.3,5.1-3.3,8c0,2.9,1.1,5.8,3.3,8c4.4,4.4,11.5,4.4,16,0C613.7,178.9,613.7,115.1,574.5,75.9z"/>
		<path fill="#2979FF" d="M544.1,106.4c-4.4-4.4-11.5-4.4-16,0c-4.4,4.4-4.4,11.5,0,16c13.6,13.6,13.6,35.7,0,49.2
			c-2.2,2.2-3.3,5.1-3.3,8c0,2.9,1.1,5.8,3.3,8c4.4,4.4,11.5,4.4,15.9,0C566.4,165.2,566.4,128.8,544.1,106.4z"/>
		<path fill="#2979FF" d="M605.5,249c56.2-56.2,56.2-147.7,0-204c-4.4-4.4-11.5-4.4-16,0c-4.4,4.4-4.4,11.5,0,16
			c47.5,47.4,47.5,124.6,0,172.1c-2.2,2.2-3.3,5.1-3.3,8s1.1,5.8,3.3,8C593.9,253.4,601.1,253.4,605.5,249z"/>
	</g>
</g>
</svg>
