<?xml version="1.0" encoding="utf-8"?>
<!-- Generator: Adobe Illustrator 22.0.0, SVG Export Plug-In . SVG Version: 6.00 Build 0)  -->
<svg version="1.0" xmlns="http://www.w3.org/2000/svg" xmlns:xlink="http://www.w3.org/1999/xlink" x="0px" y="0px"
	 viewBox="0 0 195.4 268.7" enable-background="new 0 0 195.4 268.7" xml:space="preserve">
<g id="Layer_1" display="none">
	<g display="inline">
		<defs>
			<rect id="SVGID_1_" x="0.1" y="1.4" width="39" height="149"/>
		</defs>
		<clipPath id="SVGID_2_">
			<use xlink:href="#SVGID_1_"  overflow="visible"/>
		</clipPath>
		<g clip-path="url(#SVGID_2_)">
			<defs>
				<rect id="SVGID_3_" x="-37.9" y="-157.6" width="375" height="667"/>
			</defs>
			<clipPath id="SVGID_4_">
				<use xlink:href="#SVGID_3_"  overflow="visible"/>
			</clipPath>
			<rect x="-4.9" y="-3.6" clip-path="url(#SVGID_4_)" fill="#E8E6E6" width="49" height="159"/>
		</g>
	</g>
	<g display="inline">
		<defs>
			<rect id="SVGID_5_" x="-37.9" y="-157.6" width="375" height="667"/>
		</defs>
		<clipPath id="SVGID_6_">
			<use xlink:href="#SVGID_5_"  overflow="visible"/>
		</clipPath>
		<g clip-path="url(#SVGID_6_)">
			<defs>
				<rect id="SVGID_7_" x="0.1" y="72.4" width="195" height="197"/>
			</defs>
			<clipPath id="SVGID_8_">
				<use xlink:href="#SVGID_7_"  overflow="visible"/>
			</clipPath>
			<g transform="matrix(1 0 0 1 -7.450581e-09 0)" clip-path="url(#SVGID_8_)">
				
					<image overflow="visible" width="507" height="512" xlink:href="3206B21CD2B71C88.png"  transform="matrix(0.3846 0 0 0.3848 0.1224 72.4491)">
				</image>
			</g>
		</g>
	</g>
</g>
<g id="Layer_2">
	<rect x="0.1" y="1.4" fill="#F7F7F7" width="39" height="237"/>
	<path fill="#1B294C" d="M0.1,269.4l39.5-0.5l-0.5-113.5c0,0-0.5-10.5,13.5-10.5s68,0,68,0v33l75-53l-76-53l1,34l-81.5-0.2
		c0,0-39,3.2-39,49.8S0.1,269.4,0.1,269.4z"/>
</g>
</svg>
